<svg width="30" height="30" viewBox="0 0 16 16" xmlns="http://www.w3.org/2000/svg">
  <path d="M15.51 15.513h-3.16v-4.95c0-1.182-.025-2.7-1.646-2.7-1.647 0-1.9 1.285-1.9 2.613v5.037h-3.16V5.333H8.68V6.72h.04c.424-.8 1.456-1.644 2.996-1.644 3.2 0 3.793 2.107 3.793 4.85v5.586zM2.076 3.94c-.667.018-1.29-.327-1.63-.902-.34-.575-.34-1.288 0-1.863.338-.575.962-.92 1.63-.903.993.026 1.785.84 1.785 1.833 0 .994-.79 1.808-1.785 1.835zM3.66 15.513H.494V5.333H3.66v10.18z" fill-rule="nonzero" fill="#FFF"/>
</svg>