<svg width="460" height="91" viewBox="0 0 460 91" xmlns="http://www.w3.org/2000/svg" xmlns:xlink="http://www.w3.org/1999/xlink" aria-lablledby="logoTitleID" role="img">
  <title id="logoTitleID">SISU Logo</title>
  <defs>
    <path id="a" d="M.222 88.605H74.22V.068H.222z"/>
    <path id="c" d="M81.05 91H2.226V.377H81.05V91z"/>
    <path id="e" d="M78.826 91H0V.377h78.826V91z"/>
  </defs>
  <g fill="none" fill-rule="evenodd">
    <path fill="#FFF" d="M149.78 88.663h21.594V2.088H149.78"/>
    <g transform="translate(385.73 2.02)">
      <mask id="b" fill="#fff">
        <use xlink:href="#a"/>
      </mask>
      <path d="M74.22.068v48.314c-.125 8.34-.247 16.68-5.03 24.527C59.866 87.87 40.6 88.605 36.923 88.605c-6.502 0-14.234-1.594-20.122-4.662C.117 75.36.117 60.154.242 48.382V.068h21.835v53.956c0 4.414.125 8.092 1.596 10.79 2.7 4.54 8.586 5.887 13.984 5.887 14.723 0 14.723-10.054 14.847-16.8V.068H74.22z" fill="#FFF" mask="url(#b)"/>
    </g>
    <g transform="translate(237.188 -.376)">
      <mask id="d" fill="#fff">
        <use xlink:href="#c"/>
      </mask>
      <path d="M74.476 44.862c-2.242-2.115-5.01-3.868-8.395-5.123-3.923-1.373-12.632-3.135-20.67-4.352-2.012-.304-3.987-.575-5.83-.797-3.68-.49-11.04-1.472-11.04-8.096 0-4.167 4.294-9.073 12.883-9.073 5.52 0 11.04 2.086 14.11 3.803 2.645 1.51 4.712 3.245 6.753 5.197l16.9-8.98.88-.633C72.58 10.064 61.786.377 41.79.377 26.82.377 6.945 7 6.945 29.317c0 10.94 6.212 16.747 12.41 19.918 1.464.75 2.91 1.355 4.29 1.84 2.737.96 5.162 1.486 6.61 1.788 4.66.98 9.448 1.595 14.233 2.208 6.38.858 15.09 1.962 15.09 8.828 0 6.01-7.36 10.055-15.948 10.055-5.03 0-10.92-1.102-16.685-4.17-3.567-1.932-5.438-3.618-7.237-5.538L2.225 73.54C7.635 79.805 17.34 91 41.668 91c12.144 0 24.658-2.576 32.51-11.65 4.54-5.272 6.873-12.14 6.873-18.393 0-6.468-2.232-12.003-6.574-16.095" fill="#FFF" mask="url(#d)"/>
    </g>
    <g transform="translate(0 -.376)">
      <mask id="f" fill="#fff">
        <use xlink:href="#e"/>
      </mask>
      <path d="M63.856 39.74c-3.926-1.373-12.633-3.135-20.67-4.352-2.013-.304-3.988-.575-5.83-.797-3.68-.49-11.042-1.472-11.042-8.096 0-4.167 4.295-9.073 12.884-9.073 5.52 0 11.04 2.086 14.11 3.803 2.645 1.51 4.712 3.245 6.753 5.197l16.902-8.98.88-.633C70.355 10.064 59.56.377 39.564.377 24.595.377 4.72 7 4.72 29.317c0 10.94 6.212 16.747 12.41 19.918 1.464.75 2.91 1.355 4.29 1.84 2.737.96 5.162 1.486 6.61 1.788 4.66.98 9.448 1.595 14.233 2.208 6.38.858 15.09 1.962 15.09 8.828 0 6.01-7.36 10.055-15.948 10.055-5.03 0-10.92-1.102-16.685-4.17-3.567-1.932-5.438-3.618-7.237-5.538L0 73.54C5.408 79.805 15.116 91 39.443 91c12.144 0 24.658-2.576 32.51-11.65 4.54-5.272 6.873-12.14 6.873-18.393 0-6.468-2.233-12.003-6.575-16.095-2.24-2.115-5.01-3.868-8.394-5.123z" fill="#FFF" mask="url(#f)"/>
    </g>
  </g>
</svg>